<mxfile host="app.diagrams.net" modified="2023-08-01T14:04:19.792Z" agent="Mozilla/5.0 (X11; Ubuntu; Linux x86_64; rv:109.0) Gecko/20100101 Firefox/115.0" etag="aRPVbS2ctVjT-xL_TS1X" version="21.5.0" type="github">
  <diagram name="Page-1" id="r1FkTnV_7Mc3FHfk5uUx">
    <mxGraphModel dx="822" dy="483" grid="0" gridSize="10" guides="1" tooltips="1" connect="1" arrows="1" fold="1" page="0" pageScale="1" pageWidth="850" pageHeight="1100" background="#000000" math="0" shadow="0">
      <root>
        <mxCell id="0" />
        <mxCell id="1" parent="0" />
        <mxCell id="EVbTdhEBP1tlROrxoKoR-14" value="Comments" style="swimlane;fontStyle=0;childLayout=stackLayout;horizontal=1;startSize=26;horizontalStack=0;resizeParent=1;resizeParentMax=0;resizeLast=0;collapsible=1;marginBottom=0;align=center;fontSize=14;labelBackgroundColor=none;fillColor=#FFE45E;strokeColor=#FF6392;fontColor=#5AA9E6;rounded=0;" vertex="1" parent="1">
          <mxGeometry x="50" y="80" width="160" height="176" as="geometry" />
        </mxCell>
        <mxCell id="EVbTdhEBP1tlROrxoKoR-15" value="id : number" style="text;strokeColor=none;fillColor=none;spacingLeft=4;spacingRight=4;overflow=hidden;rotatable=0;points=[[0,0.5],[1,0.5]];portConstraint=eastwest;fontSize=12;whiteSpace=wrap;html=1;labelBackgroundColor=none;fontColor=#5AA9E6;rounded=0;" vertex="1" parent="EVbTdhEBP1tlROrxoKoR-14">
          <mxGeometry y="26" width="160" height="30" as="geometry" />
        </mxCell>
        <mxCell id="EVbTdhEBP1tlROrxoKoR-16" value="time : datetime" style="text;strokeColor=none;fillColor=none;spacingLeft=4;spacingRight=4;overflow=hidden;rotatable=0;points=[[0,0.5],[1,0.5]];portConstraint=eastwest;fontSize=12;whiteSpace=wrap;html=1;labelBackgroundColor=none;fontColor=#5AA9E6;rounded=0;" vertex="1" parent="EVbTdhEBP1tlROrxoKoR-14">
          <mxGeometry y="56" width="160" height="30" as="geometry" />
        </mxCell>
        <mxCell id="EVbTdhEBP1tlROrxoKoR-17" value="user_id : foreign key" style="text;strokeColor=none;fillColor=none;spacingLeft=4;spacingRight=4;overflow=hidden;rotatable=0;points=[[0,0.5],[1,0.5]];portConstraint=eastwest;fontSize=12;whiteSpace=wrap;html=1;labelBackgroundColor=none;fontColor=#5AA9E6;rounded=0;" vertex="1" parent="EVbTdhEBP1tlROrxoKoR-14">
          <mxGeometry y="86" width="160" height="30" as="geometry" />
        </mxCell>
        <mxCell id="EVbTdhEBP1tlROrxoKoR-18" value="post_id : foreign key" style="text;strokeColor=none;fillColor=none;spacingLeft=4;spacingRight=4;overflow=hidden;rotatable=0;points=[[0,0.5],[1,0.5]];portConstraint=eastwest;fontSize=12;whiteSpace=wrap;html=1;labelBackgroundColor=none;fontColor=#5AA9E6;rounded=0;" vertex="1" parent="EVbTdhEBP1tlROrxoKoR-14">
          <mxGeometry y="116" width="160" height="30" as="geometry" />
        </mxCell>
        <mxCell id="EVbTdhEBP1tlROrxoKoR-19" value="text : text" style="text;strokeColor=none;fillColor=none;spacingLeft=4;spacingRight=4;overflow=hidden;rotatable=0;points=[[0,0.5],[1,0.5]];portConstraint=eastwest;fontSize=12;whiteSpace=wrap;html=1;labelBackgroundColor=none;fontColor=#5AA9E6;rounded=0;" vertex="1" parent="EVbTdhEBP1tlROrxoKoR-14">
          <mxGeometry y="146" width="160" height="30" as="geometry" />
        </mxCell>
        <mxCell id="EVbTdhEBP1tlROrxoKoR-20" value="Follower" style="swimlane;fontStyle=0;childLayout=stackLayout;horizontal=1;startSize=26;horizontalStack=0;resizeParent=1;resizeParentMax=0;resizeLast=0;collapsible=1;marginBottom=0;align=center;fontSize=14;labelBackgroundColor=none;fillColor=#FFE45E;strokeColor=#FF6392;fontColor=#5AA9E6;rounded=0;" vertex="1" parent="1">
          <mxGeometry x="360" y="80" width="160" height="86" as="geometry" />
        </mxCell>
        <mxCell id="EVbTdhEBP1tlROrxoKoR-21" value="id : number" style="text;strokeColor=none;fillColor=none;spacingLeft=4;spacingRight=4;overflow=hidden;rotatable=0;points=[[0,0.5],[1,0.5]];portConstraint=eastwest;fontSize=12;whiteSpace=wrap;html=1;labelBackgroundColor=none;fontColor=#5AA9E6;rounded=0;" vertex="1" parent="EVbTdhEBP1tlROrxoKoR-20">
          <mxGeometry y="26" width="160" height="30" as="geometry" />
        </mxCell>
        <mxCell id="EVbTdhEBP1tlROrxoKoR-22" value="user_id : foreign key" style="text;strokeColor=none;fillColor=none;spacingLeft=4;spacingRight=4;overflow=hidden;rotatable=0;points=[[0,0.5],[1,0.5]];portConstraint=eastwest;fontSize=12;whiteSpace=wrap;html=1;labelBackgroundColor=none;fontColor=#5AA9E6;rounded=0;" vertex="1" parent="EVbTdhEBP1tlROrxoKoR-20">
          <mxGeometry y="56" width="160" height="30" as="geometry" />
        </mxCell>
        <mxCell id="EVbTdhEBP1tlROrxoKoR-53" style="edgeStyle=orthogonalEdgeStyle;rounded=0;orthogonalLoop=1;jettySize=auto;html=1;entryX=1.006;entryY=-0.133;entryDx=0;entryDy=0;entryPerimeter=0;exitX=0.469;exitY=1.1;exitDx=0;exitDy=0;exitPerimeter=0;labelBackgroundColor=none;strokeColor=#FF6392;fontColor=default;" edge="1" parent="1">
          <mxGeometry relative="1" as="geometry">
            <mxPoint x="754.0799999999999" y="180" as="sourcePoint" />
            <mxPoint x="210.00000000000003" y="419.01" as="targetPoint" />
            <Array as="points">
              <mxPoint x="299.04" y="180" />
              <mxPoint x="299.04" y="419" />
            </Array>
          </mxGeometry>
        </mxCell>
        <mxCell id="EVbTdhEBP1tlROrxoKoR-60" style="edgeStyle=orthogonalEdgeStyle;rounded=0;orthogonalLoop=1;jettySize=auto;html=1;entryX=0.563;entryY=-0.017;entryDx=0;entryDy=0;entryPerimeter=0;labelBackgroundColor=none;strokeColor=#FF6392;fontColor=default;" edge="1" parent="1" source="EVbTdhEBP1tlROrxoKoR-24" target="EVbTdhEBP1tlROrxoKoR-14">
          <mxGeometry relative="1" as="geometry">
            <Array as="points">
              <mxPoint x="600" y="138" />
              <mxPoint x="600" y="50" />
              <mxPoint x="140" y="50" />
            </Array>
          </mxGeometry>
        </mxCell>
        <mxCell id="EVbTdhEBP1tlROrxoKoR-24" value="Like" style="swimlane;fontStyle=0;childLayout=stackLayout;horizontal=1;startSize=26;horizontalStack=0;resizeParent=1;resizeParentMax=0;resizeLast=0;collapsible=1;marginBottom=0;align=center;fontSize=14;labelBackgroundColor=none;fillColor=#FFE45E;strokeColor=#FF6392;fontColor=#5AA9E6;rounded=0;" vertex="1" parent="1">
          <mxGeometry x="680" y="80" width="160" height="116" as="geometry" />
        </mxCell>
        <mxCell id="EVbTdhEBP1tlROrxoKoR-25" value="id : number" style="text;strokeColor=none;fillColor=none;spacingLeft=4;spacingRight=4;overflow=hidden;rotatable=0;points=[[0,0.5],[1,0.5]];portConstraint=eastwest;fontSize=12;whiteSpace=wrap;html=1;labelBackgroundColor=none;fontColor=#5AA9E6;rounded=0;" vertex="1" parent="EVbTdhEBP1tlROrxoKoR-24">
          <mxGeometry y="26" width="160" height="30" as="geometry" />
        </mxCell>
        <mxCell id="EVbTdhEBP1tlROrxoKoR-26" value="user_id : foreign key" style="text;strokeColor=none;fillColor=none;spacingLeft=4;spacingRight=4;overflow=hidden;rotatable=0;points=[[0,0.5],[1,0.5]];portConstraint=eastwest;fontSize=12;whiteSpace=wrap;html=1;labelBackgroundColor=none;fontColor=#5AA9E6;rounded=0;" vertex="1" parent="EVbTdhEBP1tlROrxoKoR-24">
          <mxGeometry y="56" width="160" height="30" as="geometry" />
        </mxCell>
        <mxCell id="EVbTdhEBP1tlROrxoKoR-27" value="post_id : foreign key" style="text;strokeColor=none;fillColor=none;spacingLeft=4;spacingRight=4;overflow=hidden;rotatable=0;points=[[0,0.5],[1,0.5]];portConstraint=eastwest;fontSize=12;whiteSpace=wrap;html=1;labelBackgroundColor=none;fontColor=#5AA9E6;rounded=0;" vertex="1" parent="EVbTdhEBP1tlROrxoKoR-24">
          <mxGeometry y="86" width="160" height="30" as="geometry" />
        </mxCell>
        <mxCell id="EVbTdhEBP1tlROrxoKoR-52" style="edgeStyle=orthogonalEdgeStyle;rounded=0;orthogonalLoop=1;jettySize=auto;html=1;entryX=1;entryY=0.063;entryDx=0;entryDy=0;entryPerimeter=0;labelBackgroundColor=none;strokeColor=#FF6392;fontColor=default;" edge="1" parent="1" source="EVbTdhEBP1tlROrxoKoR-28" target="EVbTdhEBP1tlROrxoKoR-14">
          <mxGeometry relative="1" as="geometry" />
        </mxCell>
        <mxCell id="EVbTdhEBP1tlROrxoKoR-56" style="edgeStyle=orthogonalEdgeStyle;rounded=0;orthogonalLoop=1;jettySize=auto;html=1;entryX=0.5;entryY=0;entryDx=0;entryDy=0;labelBackgroundColor=none;strokeColor=#FF6392;fontColor=default;" edge="1" parent="1" source="EVbTdhEBP1tlROrxoKoR-28" target="EVbTdhEBP1tlROrxoKoR-47">
          <mxGeometry relative="1" as="geometry" />
        </mxCell>
        <mxCell id="EVbTdhEBP1tlROrxoKoR-28" value="Post" style="swimlane;fontStyle=0;childLayout=stackLayout;horizontal=1;startSize=26;horizontalStack=0;resizeParent=1;resizeParentMax=0;resizeLast=0;collapsible=1;marginBottom=0;align=center;fontSize=14;labelBackgroundColor=none;fillColor=#FFE45E;strokeColor=#FF6392;fontColor=#5AA9E6;rounded=0;" vertex="1" parent="1">
          <mxGeometry x="50" y="356" width="160" height="176" as="geometry" />
        </mxCell>
        <mxCell id="EVbTdhEBP1tlROrxoKoR-29" value="id : number" style="text;strokeColor=none;fillColor=none;spacingLeft=4;spacingRight=4;overflow=hidden;rotatable=0;points=[[0,0.5],[1,0.5]];portConstraint=eastwest;fontSize=12;whiteSpace=wrap;html=1;labelBackgroundColor=none;fontColor=#5AA9E6;rounded=0;" vertex="1" parent="EVbTdhEBP1tlROrxoKoR-28">
          <mxGeometry y="26" width="160" height="30" as="geometry" />
        </mxCell>
        <mxCell id="EVbTdhEBP1tlROrxoKoR-30" value="time : datetime" style="text;strokeColor=none;fillColor=none;spacingLeft=4;spacingRight=4;overflow=hidden;rotatable=0;points=[[0,0.5],[1,0.5]];portConstraint=eastwest;fontSize=12;whiteSpace=wrap;html=1;labelBackgroundColor=none;fontColor=#5AA9E6;rounded=0;" vertex="1" parent="EVbTdhEBP1tlROrxoKoR-28">
          <mxGeometry y="56" width="160" height="30" as="geometry" />
        </mxCell>
        <mxCell id="EVbTdhEBP1tlROrxoKoR-31" value="user_id : foreign key" style="text;strokeColor=none;fillColor=none;spacingLeft=4;spacingRight=4;overflow=hidden;rotatable=0;points=[[0,0.5],[1,0.5]];portConstraint=eastwest;fontSize=12;whiteSpace=wrap;html=1;labelBackgroundColor=none;fontColor=#5AA9E6;rounded=0;" vertex="1" parent="EVbTdhEBP1tlROrxoKoR-28">
          <mxGeometry y="86" width="160" height="30" as="geometry" />
        </mxCell>
        <mxCell id="EVbTdhEBP1tlROrxoKoR-32" value="tag : char" style="text;strokeColor=none;fillColor=none;spacingLeft=4;spacingRight=4;overflow=hidden;rotatable=0;points=[[0,0.5],[1,0.5]];portConstraint=eastwest;fontSize=12;whiteSpace=wrap;html=1;labelBackgroundColor=none;fontColor=#5AA9E6;rounded=0;" vertex="1" parent="EVbTdhEBP1tlROrxoKoR-28">
          <mxGeometry y="116" width="160" height="30" as="geometry" />
        </mxCell>
        <mxCell id="EVbTdhEBP1tlROrxoKoR-33" value="text : text" style="text;strokeColor=none;fillColor=none;spacingLeft=4;spacingRight=4;overflow=hidden;rotatable=0;points=[[0,0.5],[1,0.5]];portConstraint=eastwest;fontSize=12;whiteSpace=wrap;html=1;labelBackgroundColor=none;fontColor=#5AA9E6;rounded=0;" vertex="1" parent="EVbTdhEBP1tlROrxoKoR-28">
          <mxGeometry y="146" width="160" height="30" as="geometry" />
        </mxCell>
        <mxCell id="EVbTdhEBP1tlROrxoKoR-34" value="Friend" style="swimlane;fontStyle=0;childLayout=stackLayout;horizontal=1;startSize=26;horizontalStack=0;resizeParent=1;resizeParentMax=0;resizeLast=0;collapsible=1;marginBottom=0;align=center;fontSize=14;labelBackgroundColor=none;fillColor=#FFE45E;strokeColor=#FF6392;fontColor=#5AA9E6;rounded=0;" vertex="1" parent="1">
          <mxGeometry x="680" y="270" width="160" height="86" as="geometry" />
        </mxCell>
        <mxCell id="EVbTdhEBP1tlROrxoKoR-35" value="id : number" style="text;strokeColor=none;fillColor=none;spacingLeft=4;spacingRight=4;overflow=hidden;rotatable=0;points=[[0,0.5],[1,0.5]];portConstraint=eastwest;fontSize=12;whiteSpace=wrap;html=1;labelBackgroundColor=none;fontColor=#5AA9E6;rounded=0;" vertex="1" parent="EVbTdhEBP1tlROrxoKoR-34">
          <mxGeometry y="26" width="160" height="30" as="geometry" />
        </mxCell>
        <mxCell id="EVbTdhEBP1tlROrxoKoR-36" value="user_id : foreign key" style="text;strokeColor=none;fillColor=none;spacingLeft=4;spacingRight=4;overflow=hidden;rotatable=0;points=[[0,0.5],[1,0.5]];portConstraint=eastwest;fontSize=12;whiteSpace=wrap;html=1;labelBackgroundColor=none;fontColor=#5AA9E6;rounded=0;" vertex="1" parent="EVbTdhEBP1tlROrxoKoR-34">
          <mxGeometry y="56" width="160" height="30" as="geometry" />
        </mxCell>
        <mxCell id="EVbTdhEBP1tlROrxoKoR-55" style="edgeStyle=orthogonalEdgeStyle;rounded=0;orthogonalLoop=1;jettySize=auto;html=1;labelBackgroundColor=none;strokeColor=#FF6392;fontColor=default;" edge="1" parent="1" source="EVbTdhEBP1tlROrxoKoR-38">
          <mxGeometry relative="1" as="geometry">
            <mxPoint x="210" y="370" as="targetPoint" />
            <Array as="points">
              <mxPoint x="760" y="420" />
              <mxPoint x="300" y="420" />
              <mxPoint x="300" y="375" />
            </Array>
          </mxGeometry>
        </mxCell>
        <mxCell id="EVbTdhEBP1tlROrxoKoR-38" value="Dislike" style="swimlane;fontStyle=0;childLayout=stackLayout;horizontal=1;startSize=26;horizontalStack=0;resizeParent=1;resizeParentMax=0;resizeLast=0;collapsible=1;marginBottom=0;align=center;fontSize=14;labelBackgroundColor=none;fillColor=#FFE45E;strokeColor=#FF6392;fontColor=#5AA9E6;rounded=0;" vertex="1" parent="1">
          <mxGeometry x="680" y="440" width="160" height="116" as="geometry" />
        </mxCell>
        <mxCell id="EVbTdhEBP1tlROrxoKoR-39" value="id : number" style="text;strokeColor=none;fillColor=none;spacingLeft=4;spacingRight=4;overflow=hidden;rotatable=0;points=[[0,0.5],[1,0.5]];portConstraint=eastwest;fontSize=12;whiteSpace=wrap;html=1;labelBackgroundColor=none;fontColor=#5AA9E6;rounded=0;" vertex="1" parent="EVbTdhEBP1tlROrxoKoR-38">
          <mxGeometry y="26" width="160" height="30" as="geometry" />
        </mxCell>
        <mxCell id="EVbTdhEBP1tlROrxoKoR-40" value="user_id : foreign key" style="text;strokeColor=none;fillColor=none;spacingLeft=4;spacingRight=4;overflow=hidden;rotatable=0;points=[[0,0.5],[1,0.5]];portConstraint=eastwest;fontSize=12;whiteSpace=wrap;html=1;labelBackgroundColor=none;fontColor=#5AA9E6;rounded=0;" vertex="1" parent="EVbTdhEBP1tlROrxoKoR-38">
          <mxGeometry y="56" width="160" height="30" as="geometry" />
        </mxCell>
        <mxCell id="EVbTdhEBP1tlROrxoKoR-41" value="post_id : foreign key" style="text;strokeColor=none;fillColor=none;spacingLeft=4;spacingRight=4;overflow=hidden;rotatable=0;points=[[0,0.5],[1,0.5]];portConstraint=eastwest;fontSize=12;whiteSpace=wrap;html=1;labelBackgroundColor=none;fontColor=#5AA9E6;rounded=0;" vertex="1" parent="EVbTdhEBP1tlROrxoKoR-38">
          <mxGeometry y="86" width="160" height="30" as="geometry" />
        </mxCell>
        <mxCell id="EVbTdhEBP1tlROrxoKoR-58" style="edgeStyle=orthogonalEdgeStyle;rounded=0;orthogonalLoop=1;jettySize=auto;html=1;entryX=0.994;entryY=0.074;entryDx=0;entryDy=0;entryPerimeter=0;labelBackgroundColor=none;strokeColor=#FF6392;fontColor=default;" edge="1" parent="1" source="EVbTdhEBP1tlROrxoKoR-43" target="EVbTdhEBP1tlROrxoKoR-14">
          <mxGeometry relative="1" as="geometry" />
        </mxCell>
        <mxCell id="EVbTdhEBP1tlROrxoKoR-43" value="Archives" style="swimlane;fontStyle=0;childLayout=stackLayout;horizontal=1;startSize=26;horizontalStack=0;resizeParent=1;resizeParentMax=0;resizeLast=0;collapsible=1;marginBottom=0;align=center;fontSize=14;labelBackgroundColor=none;fillColor=#FFE45E;strokeColor=#FF6392;fontColor=#5AA9E6;rounded=0;" vertex="1" parent="1">
          <mxGeometry x="360" y="440" width="160" height="116" as="geometry" />
        </mxCell>
        <mxCell id="EVbTdhEBP1tlROrxoKoR-44" value="id : number" style="text;strokeColor=none;fillColor=none;spacingLeft=4;spacingRight=4;overflow=hidden;rotatable=0;points=[[0,0.5],[1,0.5]];portConstraint=eastwest;fontSize=12;whiteSpace=wrap;html=1;labelBackgroundColor=none;fontColor=#5AA9E6;rounded=0;" vertex="1" parent="EVbTdhEBP1tlROrxoKoR-43">
          <mxGeometry y="26" width="160" height="30" as="geometry" />
        </mxCell>
        <mxCell id="EVbTdhEBP1tlROrxoKoR-45" value="user_id : foreign key" style="text;strokeColor=none;fillColor=none;spacingLeft=4;spacingRight=4;overflow=hidden;rotatable=0;points=[[0,0.5],[1,0.5]];portConstraint=eastwest;fontSize=12;whiteSpace=wrap;html=1;labelBackgroundColor=none;fontColor=#5AA9E6;rounded=0;" vertex="1" parent="EVbTdhEBP1tlROrxoKoR-43">
          <mxGeometry y="56" width="160" height="30" as="geometry" />
        </mxCell>
        <mxCell id="EVbTdhEBP1tlROrxoKoR-46" value="post_id : foreign key" style="text;strokeColor=none;fillColor=none;spacingLeft=4;spacingRight=4;overflow=hidden;rotatable=0;points=[[0,0.5],[1,0.5]];portConstraint=eastwest;fontSize=12;whiteSpace=wrap;html=1;labelBackgroundColor=none;fontColor=#5AA9E6;rounded=0;" vertex="1" parent="EVbTdhEBP1tlROrxoKoR-43">
          <mxGeometry y="86" width="160" height="30" as="geometry" />
        </mxCell>
        <mxCell id="EVbTdhEBP1tlROrxoKoR-47" value="User" style="swimlane;fontStyle=0;childLayout=stackLayout;horizontal=1;startSize=26;horizontalStack=0;resizeParent=1;resizeParentMax=0;resizeLast=0;collapsible=1;marginBottom=0;align=center;fontSize=14;labelBackgroundColor=none;fillColor=#FFE45E;strokeColor=#FF6392;fontColor=#5AA9E6;rounded=0;" vertex="1" parent="1">
          <mxGeometry x="360" y="240" width="160" height="146" as="geometry" />
        </mxCell>
        <mxCell id="EVbTdhEBP1tlROrxoKoR-48" value="id : number" style="text;strokeColor=none;fillColor=none;spacingLeft=4;spacingRight=4;overflow=hidden;rotatable=0;points=[[0,0.5],[1,0.5]];portConstraint=eastwest;fontSize=12;whiteSpace=wrap;html=1;labelBackgroundColor=none;fontColor=#5AA9E6;rounded=0;" vertex="1" parent="EVbTdhEBP1tlROrxoKoR-47">
          <mxGeometry y="26" width="160" height="30" as="geometry" />
        </mxCell>
        <mxCell id="EVbTdhEBP1tlROrxoKoR-49" value="username : char(50)" style="text;strokeColor=none;fillColor=none;spacingLeft=4;spacingRight=4;overflow=hidden;rotatable=0;points=[[0,0.5],[1,0.5]];portConstraint=eastwest;fontSize=12;whiteSpace=wrap;html=1;labelBackgroundColor=none;fontColor=#5AA9E6;rounded=0;" vertex="1" parent="EVbTdhEBP1tlROrxoKoR-47">
          <mxGeometry y="56" width="160" height="30" as="geometry" />
        </mxCell>
        <mxCell id="EVbTdhEBP1tlROrxoKoR-50" value="profile_image: image" style="text;strokeColor=none;fillColor=none;spacingLeft=4;spacingRight=4;overflow=hidden;rotatable=0;points=[[0,0.5],[1,0.5]];portConstraint=eastwest;fontSize=12;whiteSpace=wrap;html=1;labelBackgroundColor=none;fontColor=#5AA9E6;rounded=0;" vertex="1" parent="EVbTdhEBP1tlROrxoKoR-47">
          <mxGeometry y="86" width="160" height="30" as="geometry" />
        </mxCell>
        <mxCell id="EVbTdhEBP1tlROrxoKoR-51" value="bio : text" style="text;strokeColor=none;fillColor=none;spacingLeft=4;spacingRight=4;overflow=hidden;rotatable=0;points=[[0,0.5],[1,0.5]];portConstraint=eastwest;fontSize=12;whiteSpace=wrap;html=1;labelBackgroundColor=none;fontColor=#5AA9E6;rounded=0;" vertex="1" parent="EVbTdhEBP1tlROrxoKoR-47">
          <mxGeometry y="116" width="160" height="30" as="geometry" />
        </mxCell>
        <mxCell id="EVbTdhEBP1tlROrxoKoR-54" style="edgeStyle=orthogonalEdgeStyle;rounded=0;orthogonalLoop=1;jettySize=auto;html=1;entryX=1;entryY=0.25;entryDx=0;entryDy=0;labelBackgroundColor=none;strokeColor=#FF6392;fontColor=default;" edge="1" parent="1" source="EVbTdhEBP1tlROrxoKoR-35" target="EVbTdhEBP1tlROrxoKoR-20">
          <mxGeometry relative="1" as="geometry" />
        </mxCell>
        <mxCell id="EVbTdhEBP1tlROrxoKoR-57" style="edgeStyle=orthogonalEdgeStyle;rounded=0;orthogonalLoop=1;jettySize=auto;html=1;exitX=0;exitY=0.5;exitDx=0;exitDy=0;labelBackgroundColor=none;strokeColor=#FF6392;fontColor=default;" edge="1" parent="1" source="EVbTdhEBP1tlROrxoKoR-44" target="EVbTdhEBP1tlROrxoKoR-29">
          <mxGeometry relative="1" as="geometry" />
        </mxCell>
        <mxCell id="EVbTdhEBP1tlROrxoKoR-59" style="edgeStyle=orthogonalEdgeStyle;rounded=0;orthogonalLoop=1;jettySize=auto;html=1;exitX=0;exitY=0.5;exitDx=0;exitDy=0;entryX=0.994;entryY=0.082;entryDx=0;entryDy=0;entryPerimeter=0;labelBackgroundColor=none;strokeColor=#FF6392;fontColor=default;" edge="1" parent="1" source="EVbTdhEBP1tlROrxoKoR-36" target="EVbTdhEBP1tlROrxoKoR-47">
          <mxGeometry relative="1" as="geometry" />
        </mxCell>
        <mxCell id="EVbTdhEBP1tlROrxoKoR-61" style="edgeStyle=orthogonalEdgeStyle;rounded=0;orthogonalLoop=1;jettySize=auto;html=1;entryX=-0.006;entryY=0.074;entryDx=0;entryDy=0;entryPerimeter=0;labelBackgroundColor=none;strokeColor=#FF6392;fontColor=default;" edge="1" parent="1" target="EVbTdhEBP1tlROrxoKoR-14">
          <mxGeometry relative="1" as="geometry">
            <mxPoint x="760" y="550" as="sourcePoint" />
            <Array as="points">
              <mxPoint x="760" y="570" />
              <mxPoint x="30" y="570" />
              <mxPoint x="30" y="93" />
            </Array>
          </mxGeometry>
        </mxCell>
      </root>
    </mxGraphModel>
  </diagram>
</mxfile>
